<svg width="32" height="32" viewBox="0 0 32 32" fill="none" xmlns="http://www.w3.org/2000/svg">
<path d="M16 23C19.866 23 23 19.866 23 16C23 12.134 19.866 9 16 9C12.134 9 9 12.134 9 16C9 19.866 12.134 23 16 23Z" stroke="black" stroke-width="1.5" stroke-linecap="round" stroke-linejoin="round"/>
<path d="M27.0003 15.0001L28.2887 13.0675C28.3727 12.943 28.4282 12.8016 28.4513 12.6532C28.4745 12.5048 28.4647 12.3532 28.4226 12.209C28.1795 11.4087 27.8592 10.6338 27.4661 9.8955C27.3941 9.76406 27.294 9.65015 27.1728 9.56188C27.0517 9.47362 26.9126 9.41319 26.7654 9.3849L24.4857 8.92891L23.0715 7.51472L22.6155 5.23489C22.5872 5.08771 22.5268 4.94859 22.4385 4.82746C22.3502 4.70634 22.2363 4.60619 22.1049 4.53419C21.3665 4.14116 20.5916 3.82086 19.7913 3.57783C19.6471 3.53576 19.4955 3.52594 19.3471 3.54907C19.1987 3.57221 19.0573 3.62772 18.9328 3.71167L17.0003 4.99995H15.0003L13.0679 3.71167C12.9434 3.62772 12.8019 3.57221 12.6536 3.54907C12.5052 3.52594 12.3536 3.53576 12.2094 3.57783C11.409 3.82086 10.6342 4.14115 9.89582 4.53418C9.76437 4.60619 9.65043 4.70633 9.56216 4.82747C9.47389 4.9486 9.41345 5.08773 9.38517 5.23492L8.92929 7.5146L7.51498 8.92891L5.23528 9.38478C5.08809 9.41306 4.94897 9.4735 4.82785 9.56176C4.70672 9.65003 4.60658 9.76395 4.53457 9.8954C4.14147 10.6338 3.82113 11.4086 3.57807 12.209C3.536 12.3532 3.52619 12.5048 3.54932 12.6532C3.57246 12.8016 3.62797 12.943 3.71193 13.0675L5.00021 15V17L3.71192 18.9324C3.62797 19.0569 3.57246 19.1983 3.54933 19.3467C3.5262 19.4951 3.53602 19.6467 3.57808 19.7909C3.82108 20.5913 4.14137 21.3661 4.53443 22.1045C4.60644 22.236 4.70658 22.3499 4.82771 22.4381C4.94883 22.5264 5.08795 22.5868 5.23513 22.6151L7.51498 23.0711L8.92916 24.4853L9.38505 26.7651C9.41333 26.9123 9.47377 27.0514 9.56203 27.1726C9.65029 27.2937 9.76421 27.3938 9.89565 27.4659C10.634 27.8589 11.4088 28.1792 12.2092 28.4222C12.3533 28.4643 12.505 28.4741 12.6533 28.451C12.8017 28.4278 12.9431 28.3723 13.0676 28.2884L15.0002 27.0001H17.0002L18.9327 28.2885C19.0573 28.3724 19.1987 28.4279 19.3471 28.4511C19.4955 28.4742 19.6471 28.4644 19.7912 28.4223C20.5916 28.1793 21.3664 27.859 22.1048 27.466C22.2362 27.394 22.3501 27.2938 22.4384 27.1727C22.5267 27.0516 22.5871 26.9125 22.6154 26.7653L23.0714 24.4854L24.4856 23.0711L26.7654 22.6152C26.9126 22.587 27.0517 22.5265 27.1728 22.4383C27.2939 22.35 27.3941 22.2361 27.4661 22.1046C27.8592 21.3663 28.1795 20.5915 28.4226 19.7911C28.4647 19.647 28.4745 19.4953 28.4513 19.3469C28.4282 19.1986 28.3727 19.0571 28.2887 18.9326L27.0003 17.0001V15.0001Z" stroke="black" stroke-width="1.5" stroke-linecap="round" stroke-linejoin="round"/>
</svg>
