<svg width="32" height="32" viewBox="0 0 32 32" fill="none" xmlns="http://www.w3.org/2000/svg">
<path d="M26.9091 4H5.09091C4.48842 4 4 4.48842 4 5.09091V26.9091C4 27.5116 4.48842 28 5.09091 28H26.9091C27.5116 28 28 27.5116 28 26.9091V5.09091C28 4.48842 27.5116 4 26.9091 4Z" stroke="black" stroke-width="1.5" stroke-linecap="round" stroke-linejoin="round"/>
<path d="M14.5 18.4006C14.0102 19.0721 13.3273 19.568 12.5482 19.8182C11.7691 20.0684 10.9332 20.0601 10.1589 19.7946C9.38465 19.5291 8.71121 19.0197 8.234 18.3387C7.7568 17.6577 7.5 16.8395 7.5 16C7.5 15.1606 7.75678 14.3424 8.23398 13.6613C8.71118 12.9803 9.38461 12.4709 10.1589 12.2054C10.9332 11.9399 11.7691 11.9316 12.5482 12.1818C13.3273 12.4319 14.0101 12.9279 14.5 13.5993" stroke="black" stroke-width="1.5" stroke-linecap="round" stroke-linejoin="round"/>
<path d="M24.5 18.4006C24.0102 19.0721 23.3273 19.568 22.5482 19.8182C21.7691 20.0684 20.9332 20.0601 20.1589 19.7946C19.3847 19.5291 18.7112 19.0197 18.234 18.3387C17.7568 17.6577 17.5 16.8395 17.5 16C17.5 15.1606 17.7568 14.3424 18.234 13.6613C18.7112 12.9803 19.3846 12.4709 20.1589 12.2054C20.9332 11.9399 21.7691 11.9316 22.5482 12.1818C23.3273 12.4319 24.0101 12.9279 24.5 13.5993" stroke="black" stroke-width="1.5" stroke-linecap="round" stroke-linejoin="round"/>
</svg>
